<svg fill="none" viewBox="0 0 936 113" id="background-logo" xmlns="http://www.w3.org/2000/svg">
<path d="M925.745 69.833H863.49c0-9.893 9.315-27.463 31.118-27.463 21.802 0 31.137 17.492 31.137 27.463zm9.785 9.096a38.34 38.34 0 00.47-5.967c0-23.692-17.614-39.999-41.392-39.999-23.779 0-41.393 16.307-41.393 40 0 23.692 17.222 40.018 41.706 40.018 28.123 0 37.302-21.03 37.302-21.03h-11.86s-7.104 11.662-25.442 11.662c-25.306-.039-31.177-21.516-31.177-24.684h71.786zm-183.595-5.967c0 23.692 17.223 40.019 41.099 40.019 28.907 0 40.453-22.76 40.453-31.39h-10.274c0 3.15-7.261 21.983-30.179 21.983-18.807 0-30.961-13.605-30.961-30.612 0-17.006 12.154-30.592 30.961-30.592 22.918 0 30.179 18.834 30.179 21.963h10.274c0-8.63-11.546-31.37-40.453-31.37-23.857 0-41.099 16.307-41.099 40zm-33.505 38.444h9.785V34.518h-9.785l-54.662 23.848V34.518h-9.785v76.888h9.785V68.647L718.43 44.8v66.606zM554.758 72.962c0-17.103 12.467-30.592 31.314-30.592 18.337 0 31.313 12.556 31.313 30.592 0 18.037-12.956 30.612-31.313 30.612-18.808 0-31.314-13.605-31.314-30.612zm30.492 40.019c23.054 0 31.313-14.752 31.43-14.752h.646v13.177h9.786V34.518h-9.786v13.197h-.646c-.156 0-8.376-14.752-31.43-14.752-23.055 0-40.512 16.307-40.512 40 0 23.692 17.614 40.018 40.609 40.018h-.097zm-74.018-1.575h9.786V34.518h-9.786l-54.759 23.848V34.518h-9.786v76.888h9.786V68.647L511.134 44.8l.098 66.606zM372.827 43.633h37.282v67.773h9.786V34.518h-47.166v-4.703c0-14.441 7.261-21.03 18.651-21.03 14.698 0 18.631 11.467 18.631 17.9h9.649C419.66 11.137 408.915 0 391.067 0c-16.44 0-28.124 9.426-28.124 29.815v4.703h-13.445v9.115h13.445v67.773h9.786l.098-67.773zM335.329 1.575h-31.647v109.832h31.647V1.574zm-94.841 50.203c8.376 0 12.643 5.656 12.643 11h-25.756c0-5.83 4.736-11 13.113-11zm46.97 25.111c.269-1.555.426-3.126.47-4.703 0-27.774-19.747-40.816-47.401-40.816-27.654 0-47.401 13.023-47.401 40.816 0 27.793 19.747 40.815 47.401 40.815 43.761 0 45.659-28.24 45.659-28.24h-33.662s-2.368 7.055-11.997 7.055-13.915-4.703-14.072-14.907l61.003-.02zM114.921 32.963H83.274v78.443h31.607l28.437-14.11h1.585v14.11h31.588V32.963h-31.588v37.803l-30.022 14.752.04-52.555zM68.263 59.63V36.092H45.992v-.641c0-7.774 6.478-11.137 16.753-11.137a26.443 26.443 0 0112.623 3.363V3.927c0-.001-6.459-3.888-18.319-3.888-29.356 0-42.664 10.981-42.664 34.207v1.944L0 42.467v17.26h14.365v51.776h31.627V59.629h22.271z" fill="#fff" opacity=".1"/>
</svg>