<svg fill="none" viewBox="0 0 306 306" id="big-circle" xmlns="http://www.w3.org/2000/svg">
<path d="M303 145.512c-1.79-35.853-16.374-71.185-43.755-98.568a151.783 151.783 0 00-6.649-6.263M240.964 274.981a152.138 152.138 0 0018.16-15.52 151.304 151.304 0 0023.52-30.374M3 163.869c2.577 34.659 17.125 68.595 43.643 95.097 30.911 30.893 71.928 45.531 112.415 43.913M79.575 42.614c-22.671 15.08-40.444 36.988-50.404 62.802" stroke="#1127ff" stroke-width="5" stroke-linecap="round"/>
<path d="M241.449 55.174c-23.504-21.316-54.673-34.3-88.867-34.3-2.708 0-5.396.082-8.063.242M283.388 174.014a129.018 129.018 0 001.68-20.808 128.61 128.61 0 00-4.362-33.298M66.49 253.146c23.184 19.93 53.371 31.979 86.377 31.979 38.475 0 73.116-16.371 97.306-42.512M20.447 153.242c0 23.932 6.352 46.372 17.448 65.7" stroke="#1127ff" stroke-width="1.658" stroke-linecap="round"/>
<path d="M182.321 5.958c-30.24-6.036-62.007-2.834-90.63 9.602" stroke="#1127ff" stroke-width="5" stroke-linecap="round"/>
<path d="M46.619 46.961C27.336 66.26 14.412 89.512 7.847 114.111" stroke="#1127ff" stroke-width="1.882"/>
</svg>