<svg fill="none" viewBox="0 0 31 41" id="gauge-arrow" xmlns="http://www.w3.org/2000/svg">
<path d="M21.196 31.78v-.004L16.783 3.83v-.002c-.212-1.326-1.388-2.286-2.697-2.368h0-.003c-1.333-.079-2.595.77-2.825 2.148h0v.005L6.825 31.013v.002c-.045.27-.06.388-.074.503l-.02.154a6.457 6.457 0 00-.066.855v.005c-.004 2.952 1.994 5.622 4.87 6.715a7.873 7.873 0 002.33.502c1.918.117 3.758-.468 5.16-1.683 1.41-1.223 2.25-3.098 2.256-4.941a12.352 12.352 0 00-.086-1.344z" fill="#fff" stroke="#1127ff" stroke-width="2"/>
</svg>
