<svg width="149" height="18" viewBox="0 0 149 18" fill="none" xmlns="http://www.w3.org/2000/svg"><path d="M147.367 11.124h-9.91c0-1.576 1.483-4.375 4.954-4.375 3.47 0 4.956 2.787 4.956 4.375zm1.558 1.449c.05-.315.075-.632.075-.95 0-3.775-2.804-6.372-6.589-6.372-3.785 0-6.589 2.597-6.589 6.371 0 3.774 2.741 6.375 6.639 6.375 4.477 0 5.938-3.35 5.938-3.35h-1.888s-1.131 1.858-4.05 1.858c-4.029-.006-4.963-3.428-4.963-3.932h11.427zm-29.226-.95c0 3.773 2.742 6.374 6.543 6.374 4.601 0 6.439-3.626 6.439-5h-1.635c0 .502-1.156 3.502-4.804 3.502-2.994 0-4.929-2.168-4.929-4.877 0-2.709 1.935-4.873 4.929-4.873 3.648 0 4.804 3 4.804 3.499h1.635c0-1.375-1.838-4.997-6.439-4.997-3.798 0-6.543 2.597-6.543 6.371zm-5.334 6.123h1.558V5.498h-1.558l-8.701 3.8v-3.8h-1.558v12.248h1.558v-6.811l8.701-3.799v10.61zm-26.054-6.124c0-2.724 1.984-4.873 4.985-4.873 2.919 0 4.984 2 4.984 4.873S96.218 16.5 93.296 16.5c-2.994 0-4.985-2.168-4.985-4.877zm4.854 6.375c3.67 0 4.984-2.35 5.003-2.35h.103v2.1h1.558V5.497H98.27V7.6h-.103c-.025 0-1.333-2.35-5.003-2.35s-6.45 2.597-6.45 6.371c0 3.774 2.805 6.375 6.465 6.375h-.015zm-11.783-.25h1.558V5.497h-1.558l-8.717 3.8v-3.8h-1.558v12.248h1.558v-6.811l8.701-3.799.016 10.61zM59.35 6.95h5.935v10.796h1.558V5.498h-7.508V4.75c0-2.3 1.156-3.35 2.969-3.35 2.34 0 2.966 1.827 2.966 2.852h1.536c0-2.477-1.71-4.251-4.552-4.251-2.617 0-4.477 1.502-4.477 4.75v.748h-2.14V6.95h2.14v10.796h1.558L59.35 6.95zM53.38.25h-5.037v17.496h5.037V.251zM38.283 8.249c1.333 0 2.012.9 2.012 1.752h-4.1c0-.929.754-1.752 2.088-1.752zm7.477 4c.043-.248.068-.498.075-.75 0-4.424-3.144-6.501-7.546-6.501s-7.546 2.074-7.546 6.502c0 4.427 3.144 6.501 7.546 6.501 6.966 0 7.268-4.498 7.268-4.498H40.2s-.377 1.123-1.91 1.123-2.215-.749-2.24-2.374l9.71-.003zM18.294 5.25h-5.038v12.495h5.032l4.526-2.247h.253v2.247h5.028V5.251h-5.028v6.021l-4.78 2.35.007-8.371zm-7.427 4.247V5.75H7.32v-.102c0-1.238 1.032-1.774 2.667-1.774a4.207 4.207 0 0 1 2.01.536V.625S10.97.006 9.082.006c-4.674 0-6.792 1.75-6.792 5.45v.309l-2.29 1v2.749h2.287v8.248H7.32V9.498h3.546z" fill="#fff"/></svg>