<svg fill="none" viewBox="0 0 69 69" id="result-5" xmlns="http://www.w3.org/2000/svg">
<path d="M13.552 40.743l14.705 14.703 2.286-5.106-11.885-11.885-5.106 2.288z" stroke="#000"/>
<path d="M15.434 46.825c-2.528-2.532-5.36-1.774-6.28 1.684l-2.466 9.204c-.93 3.452 1.144 5.526 4.599 4.599l9.204-2.466c3.455-.927 4.212-3.755 1.684-6.283l-6.74-6.738zM67.122 1.878C63.444-1.8 49.255 6.406 35.099 20.274l-1.59-1.59-8.401 4.201L4.1 27.087l-2.1 2.1 21.78 3.631a101.972 101.972 0 00-2.398 3.152l4.774 4.774 10.502-10.505 2.1 2.1-10.501 10.506 4.77 4.771a96.478 96.478 0 003.153-2.395L39.81 67l2.1-2.1 4.202-21.008 4.203-8.401-1.59-1.59C62.595 19.742 70.8 5.556 67.123 1.878zm-14.706 8.405a4.454 4.454 0 016.301 0 4.454 4.454 0 010 6.301 4.46 4.46 0 01-6.301 0 4.454 4.454 0 010-6.301z" stroke="#000"/>
</svg>