<svg fill="none" viewBox="0 0 86 65" id="result-1" xmlns="http://www.w3.org/2000/svg">

<path clip-rule="evenodd" d="M43 1c-.916 0-1.346.53-1.76.955-.05.05-.098.099-.15.149v48.532h3.82V2.104c-.052-.05-.1-.099-.15-.15C44.346 1.53 43.917 1 43 1zM17.227 3.864c-.872 0-1.346.537-1.67 1.014L1.239 31.605C1.1 31.892 1 32.282 1 32.5c0 7.38 7.265 13.364 16.227 13.364S33.455 39.88 33.455 32.5c0-.218-.1-.608-.24-.895L21.613 9.98c2.715 1.009 5.374 1.521 8.024 1.521 2.71 0 5.248-.706 7.637-1.91V5.207c-2.448 1.6-4.962 2.476-7.637 2.476-3.229 0-6.52-.877-10.231-2.864-.809-.369-1.39-.954-2.178-.954zm51.546 0c-.788 0-1.37.585-2.178.954-3.711 1.987-7.002 2.864-10.231 2.864-2.675 0-5.189-.876-7.637-2.476v4.385c2.389 1.203 4.928 1.909 7.637 1.909 2.65 0 5.31-.512 8.024-1.521L52.784 31.605c-.138.287-.239.677-.239.895 0 7.38 7.266 13.364 16.228 13.364C77.735 45.864 85 39.88 85 32.5c0-.218-.1-.608-.239-.895L70.443 4.878c-.324-.477-.798-1.014-1.67-1.014zM17.227 9.8l11.157 20.79H6.07L17.227 9.8zm51.546 0l11.156 20.79H57.617L68.773 9.8zM27.727 54.454a7.62 7.62 0 00-7.636 7.637V64H65.91v-1.91c0-4.23-3.41-7.488-7.637-7.636H27.727z" stroke="#000"/>
</svg>