
<svg fill="none" viewBox="0 0 78 43" id="result-2" xmlns="http://www.w3.org/2000/svg">
<path clip-rule="evenodd" d="M39 1C28.85 1 19.306 4.952 12.13 12.13 4.951 19.305 1 28.85 1 39a3.168 3.168 0 003.167 3.167h30.688c-1.33-1.16-2.188-2.85-2.188-4.75A6.34 6.34 0 0139 31.083a6.27 6.27 0 013.77 1.275l17.149-7.351a3.164 3.164 0 014.158 1.662 3.165 3.165 0 01-1.663 4.158L45.256 38.18a6.358 6.358 0 01-2.097 3.987h30.674A3.168 3.168 0 0077 39.002C77 18.048 59.952 1 39 1zM20 39h-6.333a1.583 1.583 0 110-3.167H20A1.583 1.583 0 1120 39zm6.685-13.898a1.579 1.579 0 01-2.239 0l-4.478-4.478a1.582 1.582 0 010-2.239c.62-.62 1.62-.62 2.24 0l4.477 4.478c.617.617.617 1.62 0 2.239zm13.898-6.685a1.583 1.583 0 11-3.166 0v-6.334a1.584 1.584 0 013.166 0v6.334zm17.45 2.207l-4.477 4.478a1.58 1.58 0 01-2.24 0 1.582 1.582 0 010-2.24l4.478-4.477a1.583 1.583 0 112.239 2.239zM64.333 39H58a1.582 1.582 0 01-1.583-1.583c0-.876.707-1.584 1.583-1.584h6.333c.876 0 1.584.708 1.584 1.584 0 .875-.708 1.583-1.584 1.583z" stroke="#000"/>
</svg>