<svg fill="none" viewBox="0 0 204 204" id="small-circle" xmlns="http://www.w3.org/2000/svg">
<path d="M201.173 97.272c-1.185-23.799-10.838-47.252-28.962-65.428a100.723 100.723 0 00-4.4-4.158M160.185 183.062a101.144 101.144 0 0012.044-10.315 100.61 100.61 0 0015.599-20.188M2.903 108.71c1.7 23.034 11.297 45.587 28.79 63.199 20.392 20.531 47.45 30.259 74.158 29.184M53.424 29.593c-15.006 9.842-26.77 24.14-33.363 40.988" stroke="#fff" stroke-width="5" stroke-linecap="round"/>
<path d="M161.138 37.219C145.421 23 124.577 14.34 101.711 14.34c-1.81 0-3.608.055-5.392.162M187.68 116.336a88.259 88.259 0 001.101-13.931c0-7.7-.993-15.17-2.86-22.291M44.845 168.94c15.401 12.959 35.452 20.794 57.377 20.794 25.557 0 48.567-10.645 64.635-27.643M14.342 102.038c0 15.972 4.164 30.948 11.438 43.848" stroke="#fff" stroke-width="1.658" stroke-linecap="round"/>
<path d="M121.103 4.923C101.065.801 80.016 2.987 61.05 11.482" stroke="#fff" stroke-width="5" stroke-linecap="round">
<path d="M31.5 31.5C18.7 44.374 10.121 59.889 5.763 76.3" stroke="#fff" stroke-width="1.882"/>
</svg>